<?xml version="1.0" encoding="UTF-8"?>
<svg version="1.1" xmlns="http://www.w3.org/2000/svg" width="512" height="512">
<path d="M0 0 C15.78564037 8.08532799 29.93651341 21.40158754 42.89453125 33.25390625 C43.90950502 34.16478867 44.92515751 35.07491525 45.94140625 35.984375 C51.64539445 41.1114856 57.01533477 46.32233406 61.89453125 52.25390625 C62.74402344 53.26195312 63.59351563 54.27 64.46875 55.30859375 C71.51309756 63.68175571 71.51309756 63.68175571 73.89453125 67.25390625 C78.24494907 66.68674067 81.73042219 65.58516932 85.70703125 63.75390625 C92.3921965 60.90774679 97.56220936 59.25420968 104.64453125 61.37890625 C115.13801613 67.43283983 122.21403219 79.86517074 128.76953125 89.75390625 C129.46498047 90.80199463 130.16042969 91.85008301 130.87695312 92.92993164 C136.70146294 101.79851849 142.05802224 110.81193873 146.89453125 120.25390625 C147.23887207 120.9180957 147.58321289 121.58228516 147.93798828 122.26660156 C154.99855508 136.03723447 161.38675725 151.16232042 164.89453125 166.25390625 C166.10689453 166.40085938 166.10689453 166.40085938 167.34375 166.55078125 C178.49539082 168.11120385 178.49539082 168.11120385 181.89453125 172.25390625 C193.47932989 191.93901331 196.35552879 219.04356696 198.89453125 241.25390625 C199.02730469 242.35734375 199.16007812 243.46078125 199.296875 244.59765625 C200.27183858 254.1068901 199.97943119 263.70738005 199.89453125 273.25390625 C200.97347656 273.22167969 202.05242187 273.18945312 203.1640625 273.15625 C207.928764 273.28098041 207.928764 273.28098041 210.58203125 274.81640625 C211.12214844 275.10644531 211.66226562 275.39648438 212.21875 275.6953125 C215.94978387 279.16543491 217.72173821 283.017784 218.41210938 287.95654297 C218.41887695 289.92518311 218.41887695 289.92518311 218.42578125 291.93359375 C218.43133026 292.65511627 218.43687927 293.37663879 218.44259644 294.12002563 C218.45088472 296.45710357 218.42574433 298.79204286 218.39453125 301.12890625 C218.38899231 301.93013916 218.38345337 302.73137207 218.37774658 303.55688477 C218.20422246 324.97990649 214.80955163 344.97342011 207.89453125 365.25390625 C207.67603516 365.92615234 207.45753906 366.59839844 207.23242188 367.29101562 C196.31844806 400.77172913 173.35482517 434.07626853 145.89453125 456.25390625 C144.82004077 457.15201876 143.7458512 458.05049132 142.671875 458.94921875 C100.60430601 493.78057609 47.93880712 511.74442118 -6.41796875 511.62890625 C-7.38390961 511.62836243 -8.34985046 511.6278186 -9.34506226 511.6272583 C-25.24224569 511.58623416 -40.52502555 510.66147988 -56.10546875 507.25390625 C-57.09160156 507.03959961 -58.07773438 506.82529297 -59.09375 506.60449219 C-87.43164702 500.22567985 -115.38541453 489.22995656 -139.10546875 472.25390625 C-140.07105713 471.56578857 -140.07105713 471.56578857 -141.05615234 470.86376953 C-149.01494086 465.14498119 -156.57807003 459.19216809 -163.7265625 452.48046875 C-165.82327007 450.5180331 -167.96874189 448.66148326 -170.16796875 446.81640625 C-179.36369506 438.78185108 -186.95020555 429.1001339 -194.10546875 419.25390625 C-194.50733398 418.7031543 -194.90919922 418.15240234 -195.32324219 417.58496094 C-212.12077915 394.26332017 -222.84646644 368.16233284 -229.10546875 340.25390625 C-229.28625977 339.46419434 -229.46705078 338.67448242 -229.65332031 337.86083984 C-232.27756734 325.83260618 -232.4347953 313.69989596 -232.54296875 301.44140625 C-232.55527527 300.64360748 -232.56758179 299.84580872 -232.58026123 299.02383423 C-232.61000287 296.71844194 -232.61039118 294.41490861 -232.6015625 292.109375 C-232.61264542 291.42152924 -232.62372833 290.73368347 -232.63514709 290.0249939 C-232.55934681 284.63428265 -231.02275085 281.62399071 -228.10546875 277.25390625 C-226.4296875 275.6953125 -226.4296875 275.6953125 -224.79296875 274.81640625 C-224.26058594 274.50832031 -223.72820312 274.20023437 -223.1796875 273.8828125 C-220.14763576 272.96348985 -217.25007188 273.15998143 -214.10546875 273.25390625 C-214.14027344 272.135 -214.17507812 271.01609375 -214.2109375 269.86328125 C-214.79073212 242.18618181 -213.69246129 193.74362248 -194.60546875 171.31640625 C-190.93441718 168.28778871 -188.09419823 167.04702944 -183.35546875 166.62890625 C-182.15664062 166.51675781 -182.15664062 166.51675781 -180.93359375 166.40234375 C-180.3303125 166.35335937 -179.72703125 166.304375 -179.10546875 166.25390625 C-178.91025635 165.63161133 -178.71504395 165.00931641 -178.51391602 164.36816406 C-168.66102795 133.22972396 -154.68920629 105.21590065 -135.32568359 78.92089844 C-134.09749637 77.24301481 -132.89132074 75.55089446 -131.6875 73.85546875 C-130.91792969 72.79070312 -130.14835937 71.7259375 -129.35546875 70.62890625 C-128.68 69.68789062 -128.00453125 68.746875 -127.30859375 67.77734375 C-123.23269712 63.10885222 -118.94183414 60.49153007 -112.80859375 60.01171875 C-106.06735204 60.61570283 -99.53364723 63.67513985 -93.43359375 66.484375 C-91.19578458 67.35754534 -91.19578458 67.35754534 -89.09375 67.26171875 C-85.96174639 65.67418057 -84.28322445 62.92297093 -82.29296875 60.12890625 C-79.02341023 55.70284274 -75.74493805 51.64390975 -71.73828125 47.8515625 C-69.96438103 46.1158563 -68.39063135 44.2775239 -66.79296875 42.37890625 C-62.61606958 37.55514216 -57.91438673 33.43442367 -53.10546875 29.25390625 C-52.0646888 28.32728925 -51.02434189 27.40018568 -49.984375 26.47265625 C-43.49778575 20.74207307 -36.79688749 15.40355487 -29.79296875 10.31640625 C-29.06464844 9.78499023 -28.33632812 9.25357422 -27.5859375 8.70605469 C-10.3053067 -3.65178772 -10.3053067 -3.65178772 0 0 Z M-13.85546875 37.50390625 C-14.43546631 37.95717285 -15.01546387 38.41043945 -15.61303711 38.87744141 C-17.45208808 40.32624086 -19.28066806 41.78720739 -21.10546875 43.25390625 C-21.65283691 43.69250977 -22.20020508 44.13111328 -22.76416016 44.58300781 C-30.84185808 51.12058085 -38.29745356 58.24592171 -45.66796875 65.56640625 C-46.52527588 66.41444824 -47.38258301 67.26249023 -48.26586914 68.13623047 C-56.14268626 75.17274976 -56.14268626 75.17274976 -60.10546875 84.25390625 C-58.60621144 85.41587017 -58.60621144 85.41587017 -56.625 86.50390625 C-55.87959961 86.94210693 -55.13419922 87.38030762 -54.36621094 87.83178711 C-53.55829102 88.30108643 -52.75037109 88.77038574 -51.91796875 89.25390625 C-38.41202311 97.31326562 -24.01149138 107.19661729 -13.50390625 119.0625 C-10.88120685 121.29692268 -7.94337554 120.89841831 -4.6484375 120.7890625 C-0.91801787 120.00401259 0.58790829 118.17540533 3.02734375 115.359375 C14.24662146 102.70834846 31.11467787 92.22343503 45.89453125 84.25390625 C43.59234526 77.23350391 37.92065825 72.44766394 32.89453125 67.25390625 C32.26579102 66.60325195 31.63705078 65.95259766 30.98925781 65.28222656 C23.01361337 57.07211928 15.01071896 49.20084053 5.89453125 42.25390625 C4.80458253 41.40768727 3.71474362 40.56132683 2.625 39.71484375 C-5.44006287 32.95193775 -5.44006287 32.95193775 -13.85546875 37.50390625 Z M-108.10546875 94.25390625 C-123.35660768 115.749606 -137.2662094 138.31695253 -145.85546875 163.37890625 C-146.10796387 164.10674316 -146.36045898 164.83458008 -146.62060547 165.58447266 C-147.5188928 168.39153709 -148.0913453 171.08701421 -148.33984375 174.0234375 C-146.14510682 177.98924379 -141.74853077 178.52928602 -137.60546875 179.81640625 C-128.69817265 182.80620068 -120.24270853 186.33213911 -111.79296875 190.44140625 C-110.24802734 191.18982788 -110.24802734 191.18982788 -108.671875 191.95336914 C-102.71318126 194.87777701 -96.86975626 197.96299583 -91.10546875 201.25390625 C-90.71617187 200.61066406 -90.326875 199.96742188 -89.92578125 199.3046875 C-85.12738098 191.554276 -79.79206173 184.35894797 -74.10546875 177.25390625 C-73.31914062 176.26003906 -72.5328125 175.26617187 -71.72265625 174.2421875 C-61.44271356 161.65811973 -49.82852656 149.38253955 -37.10546875 139.25390625 C-56.37627619 119.38088608 -82.34646035 104.1306744 -108.10546875 94.25390625 Z M83.76953125 98.69140625 C83.06231934 99.05266602 82.35510742 99.41392578 81.62646484 99.78613281 C80.13030085 100.55283858 78.63570394 101.32260904 77.14257812 102.09521484 C74.99903207 103.20004429 72.84649405 104.2850906 70.69140625 105.3671875 C55.63638093 113.01998225 41.67854665 122.20599171 28.89453125 133.25390625 C27.66726741 134.2770264 26.43844559 135.29828538 25.20703125 136.31640625 C24.44390625 136.95578125 23.68078125 137.59515625 22.89453125 138.25390625 C25.15916907 141.36778325 27.57975008 143.92259918 30.5 146.40234375 C42.92020621 157.163986 54.19691748 168.99290755 63.89453125 182.25390625 C65.01601563 183.75244141 65.01601563 183.75244141 66.16015625 185.28125 C69.99891241 190.46357082 73.56138617 195.73338471 76.89453125 201.25390625 C77.75691406 200.78082031 78.61929688 200.30773437 79.5078125 199.8203125 C97.4365196 190.06759559 115.68304276 182.157611 134.89453125 175.25390625 C127.75197823 151.2030972 117.87671418 127.56717268 102.89453125 107.25390625 C102.10060672 106.13088341 101.30769073 105.00714711 100.515625 103.8828125 C97.36219928 99.44529697 97.36219928 99.44529697 93.89453125 95.25390625 C89.94053146 95.25390625 87.20187072 96.91971701 83.76953125 98.69140625 Z M-35.10546875 179.25390625 C-36.33523437 180.41986328 -36.33523437 180.41986328 -37.58984375 181.609375 C-48.71889566 192.40455535 -57.58487095 205.3657709 -66.10546875 218.25390625 C-64.5151654 222.29156266 -61.6275255 224.83763282 -58.54296875 227.75390625 C-52.65563224 233.45558994 -47.81264926 239.54974007 -43.10546875 246.25390625 C-37.3829308 243.0313949 -32.21966414 238.99732176 -26.96289062 235.08007812 C-20.02898725 229.99521565 -13.60710795 225.30313883 -4.71875 225.76171875 C4.50416359 227.49876974 12.1687443 234.50753911 19.41259766 240.11425781 C20.06534668 240.61924805 20.7180957 241.12423828 21.390625 241.64453125 C21.96997803 242.09860352 22.54933105 242.55267578 23.14624023 243.02050781 C24.98645228 244.31875544 26.85880843 245.29729791 28.89453125 246.25390625 C29.549375 245.3825 30.20421875 244.51109375 30.87890625 243.61328125 C37.31907178 235.16704529 44.20793061 227.57831105 51.89453125 220.25390625 C43.30336219 195.8747773 14.9217172 169.60648753 -6.10546875 155.25390625 C-14.81177824 155.25390625 -28.96210764 173.3754646 -35.10546875 179.25390625 Z M-173.10546875 201.25390625 C-180.45340996 221.64373017 -183.17225606 243.60776882 -183.35546875 265.19140625 C-183.36489502 266.02639648 -183.37432129 266.86138672 -183.3840332 267.72167969 C-183.37976318 268.50446289 -183.37549316 269.28724609 -183.37109375 270.09375 C-183.36883789 270.77816162 -183.36658203 271.46257324 -183.36425781 272.16772461 C-183.02421348 274.90893102 -182.47319278 276.83795411 -181.10546875 279.25390625 C-178.62818847 280.44376178 -178.62818847 280.44376178 -175.5859375 280.95703125 C-174.43327393 281.21009033 -173.28061035 281.46314941 -172.09301758 281.72387695 C-170.83900146 281.98128662 -169.58498535 282.23869629 -168.29296875 282.50390625 C-165.6306096 283.09165762 -162.97325233 283.700359 -160.31640625 284.3125 C-159.63425552 284.46845139 -158.9521048 284.62440277 -158.24928284 284.78507996 C-137.26827413 289.64947279 -117.04947493 297.22929345 -97.10546875 305.25390625 C-93.91919402 302.15301888 -91.49951754 299.03107535 -89.04296875 295.31640625 C-85.7419144 290.43084581 -82.23354906 285.81191314 -78.41796875 281.31640625 C-77.9789624 280.79763916 -77.53995605 280.27887207 -77.08764648 279.74438477 C-74.76289778 277.04340126 -72.34938403 274.49708344 -69.7890625 272.0234375 C-66.89578041 269.60726876 -66.89578041 269.60726876 -66.85546875 266.87890625 C-80.54387185 238.13325974 -116.86289479 219.40933902 -145.46435547 209.03564453 C-149.12795413 207.74854053 -152.80005529 206.49208282 -156.48046875 205.25390625 C-157.66439209 204.85550537 -158.84831543 204.45710449 -160.06811523 204.04663086 C-166.45199312 201.9036762 -166.45199312 201.9036762 -173.10546875 201.25390625 Z M76.89453125 239.25390625 C76.01667969 239.99253906 75.13882812 240.73117188 74.234375 241.4921875 C66.37749792 248.32900635 57.9733676 256.07108128 52.89453125 265.25390625 C52.91332035 268.42926429 53.43302917 269.72071453 55.50390625 272.11328125 C56.2103125 272.7371875 56.91671875 273.36109375 57.64453125 274.00390625 C67.12518063 283.0446535 74.90582052 294.21628993 81.89453125 305.25390625 C82.87260742 304.88241455 83.85068359 304.51092285 84.85839844 304.12817383 C94.23610147 300.57985178 103.6444938 297.14946817 113.14453125 293.94140625 C113.82855011 293.70879089 114.51256897 293.47617554 115.21731567 293.23651123 C123.72001809 290.36282187 132.24222615 287.82413095 140.96875 285.71875 C141.79623749 285.51873886 142.62372498 285.31872772 143.47628784 285.11265564 C147.50735627 284.14805147 151.54362827 283.22028985 155.59277344 282.3347168 C157.05668023 281.99805627 158.52054942 281.6612322 159.984375 281.32421875 C161.27206787 281.04336426 162.55976074 280.76250977 163.88647461 280.47314453 C167.04342078 279.54553543 167.04342078 279.54553543 168.30981445 276.88452148 C168.83274702 274.53187079 169.15223688 272.49643101 169.16015625 270.09375 C169.16442627 269.3109668 169.16869629 268.52818359 169.1730957 267.72167969 C169.1589563 266.46919434 169.1589563 266.46919434 169.14453125 265.19140625 C169.13703857 264.3087207 169.1295459 263.42603516 169.12182617 262.51660156 C168.79353201 241.85057555 165.9238933 220.75970391 158.89453125 201.25390625 C132.54804188 201.25390625 96.54617931 222.54591698 76.89453125 239.25390625 Z M-11.56640625 261.2265625 C-12.88684858 262.23623286 -14.19064435 263.26790484 -15.48046875 264.31640625 C-16.18163818 264.86643311 -16.88280762 265.41645996 -17.60522461 265.9831543 C-19.79267496 267.71608226 -21.95232624 269.47858582 -24.10546875 271.25390625 C-25.0787915 272.05151367 -25.0787915 272.05151367 -26.07177734 272.86523438 C-41.34665129 285.48309355 -57.48402864 299.65519617 -67.10546875 317.25390625 C-67.10546875 317.91390625 -67.10546875 318.57390625 -67.10546875 319.25390625 C-66.56470703 319.53886963 -66.02394531 319.82383301 -65.46679688 320.11743164 C-48.81388959 328.93767958 -32.13639418 338.16534298 -16.87890625 349.27734375 C-16.27892822 349.71344971 -15.6789502 350.14955566 -15.06079102 350.59887695 C-13.55595088 351.71414486 -12.07357828 352.859564 -10.59375 354.0078125 C-8.20405133 355.52181296 -8.20405133 355.52181296 -5.7578125 354.79296875 C-2.17048592 352.71136835 1.23338757 350.42338393 4.64453125 348.06640625 C20.11950147 337.56628744 36.23358988 327.76655423 52.89453125 319.25390625 C48.93252164 308.23518302 39.8782308 299.56626581 31.89453125 291.25390625 C30.98316406 290.30128906 30.07179688 289.34867187 29.1328125 288.3671875 C23.07243994 282.16848974 16.71884996 276.5922846 9.89453125 271.25390625 C8.75900166 270.35040232 7.62358957 269.44675071 6.48828125 268.54296875 C5.33276924 267.63317649 4.17653158 266.72430503 3.01953125 265.81640625 C2.21636475 265.17819946 2.21636475 265.17819946 1.39697266 264.52709961 C-4.6315515 259.38579524 -4.6315515 259.38579524 -11.56640625 261.2265625 Z M-201.10546875 307.25390625 C-201.32201736 314.67359247 -200.82167156 321.59427494 -199.41796875 328.87890625 C-199.23790283 329.83112061 -199.05783691 330.78333496 -198.87231445 331.7644043 C-193.6572264 358.36558601 -182.93255655 382.87803251 -166.10546875 404.25390625 C-165.491875 405.06988281 -164.87828125 405.88585937 -164.24609375 406.7265625 C-149.51390037 425.65571795 -127.54177375 448.44180458 -104.10546875 456.25390625 C-103.19667969 454.54847656 -103.19667969 454.54847656 -102.26953125 452.80859375 C-86.83548433 424.2146963 -65.3931778 399.30041262 -39.45947266 379.67919922 C-36.30502129 377.3906546 -36.30502129 377.3906546 -34.10546875 374.25390625 C-62.32767968 355.46466256 -92.09324442 338.69884946 -124.10546875 327.25390625 C-124.71843811 327.03454407 -125.33140747 326.81518188 -125.96295166 326.58917236 C-162.72191183 313.41289714 -162.72191183 313.41289714 -201.10546875 307.25390625 Z M85.89453125 337.25390625 C84.45158691 337.90866943 84.45158691 337.90866943 82.97949219 338.57666016 C60.95033228 348.63993253 39.73719677 360.33784545 19.89453125 374.25390625 C23.55256593 378.01431131 27.38221339 381.44059863 31.39453125 384.81640625 C55.79002954 405.58833238 74.64127951 427.97023845 89.89453125 456.25390625 C128.28001053 438.95934965 160.6349949 401.66247653 175.84765625 362.8203125 C181.71166068 347.03075959 187.1668916 329.31509476 186.95703125 312.31640625 C186.94800781 311.35863281 186.93898438 310.40085937 186.9296875 309.4140625 C186.91808594 308.70121094 186.90648437 307.98835938 186.89453125 307.25390625 C154.08059439 306.46237398 115.20763768 323.84292255 85.89453125 337.25390625 Z M-11.5625 396.67578125 C-12.25674072 397.20091309 -12.95098145 397.72604492 -13.66625977 398.26708984 C-14.40932373 398.84023926 -15.1523877 399.41338867 -15.91796875 400.00390625 C-16.67972412 400.58865723 -17.44147949 401.1734082 -18.22631836 401.77587891 C-24.21074001 406.43035947 -29.81557345 411.38256233 -35.3046875 416.60546875 C-37.64410914 418.81764151 -40.02254659 420.92665655 -42.48046875 423.00390625 C-46.4301599 426.4444896 -49.78999265 430.20456983 -53.10546875 434.25390625 C-53.72276855 435.00269043 -53.72276855 435.00269043 -54.35253906 435.76660156 C-68.04548569 451.16287665 -68.04548569 451.16287665 -75.10546875 469.25390625 C-67.19563114 472.10051447 -59.30972181 474.59916063 -51.10546875 476.44140625 C-50.43209473 476.59577148 -49.7587207 476.75013672 -49.06494141 476.90917969 C-35.18320176 479.90729727 -21.55929909 480.62691722 -7.41796875 480.56640625 C-6.53395386 480.56458344 -5.64993896 480.56276062 -4.73913574 480.56088257 C8.02280395 480.51655223 20.41445732 480.15262745 32.89453125 477.25390625 C33.75433594 477.06103027 34.61414063 476.8681543 35.5 476.66943359 C44.18508219 474.69484732 52.59656326 472.51246902 60.89453125 469.25390625 C56.48856324 454.82276465 46.1666926 442.55395605 36.08203125 431.62890625 C33.94964511 429.31374416 31.89085765 426.94692428 29.83203125 424.56640625 C26.13079026 420.40795314 22.15849402 416.82156534 17.89453125 413.25390625 C16.90195312 412.39667969 15.909375 411.53945313 14.88671875 410.65625 C2.45274419 397.88752153 2.45274419 397.88752153 -11.5625 396.67578125 Z " fill="#000000" transform="translate(263.10546875,0.74609375)"/>
</svg>
